<svg width="44" height="48" viewBox="0 0 44 48" fill="none" xmlns="http://www.w3.org/2000/svg">
<path d="M0.472092 27.542L5.30614 24.5999C8.96474 31.1835 17.3318 33.2555 23.958 29.2172C26.2303 27.8255 28.0857 25.8471 29.3288 23.4904C30.572 21.1336 31.1568 18.4858 31.0218 15.8259C30.9123 13.7688 30.3378 11.7638 29.3416 9.96154L34.1808 7.00938C35.5829 9.54151 36.3921 12.3592 36.5474 15.2504C36.7371 18.982 35.9168 22.6965 34.1728 26.0026C32.4289 29.3087 29.8259 32.084 26.6381 34.0361C17.3468 39.686 5.60861 36.7779 0.472092 27.542Z" fill="#E24A28"/>
<path d="M8.68621 26.7642L5.30603 24.5999C6.33553 26.4624 7.80854 28.0419 9.59466 29.1987L12.9621 31.3704C11.1778 30.2122 9.70873 28.6296 8.68621 26.7642Z" fill="#E24A28"/>
<path d="M36.5526 15.2353C36.7423 18.9669 35.9219 22.6814 34.178 25.9875C32.434 29.2936 29.831 32.0689 26.6432 34.021C20.0807 38.0169 12.3073 37.7465 6.49469 33.9961L9.86215 36.1678C15.6748 39.9182 23.4507 40.1912 30.0107 36.1927C33.199 34.2412 35.8025 31.466 37.5465 28.1597C39.2905 24.8535 40.1105 21.1387 39.92 17.4071C39.7655 14.5173 38.9562 11.7011 37.5533 9.17108L34.1859 6.9943C35.5881 9.52642 36.3973 12.3442 36.5526 15.2353Z" fill="#F36A3E"/>
</svg>
